<mxfile host="app.diagrams.net" agent="Mozilla/5.0 (Windows NT 10.0; Win64; x64) AppleWebKit/537.36 (KHTML, like Gecko) Chrome/128.0.0.0 Safari/537.36 Edg/128.0.0.0" version="24.7.10">
  <diagram name="Page-1" id="gN-tMkDcv9xauiyZT2SU">
    <mxGraphModel dx="988" dy="553" grid="0" gridSize="10" guides="1" tooltips="1" connect="1" arrows="1" fold="1" page="1" pageScale="1" pageWidth="850" pageHeight="1100" background="#FFFFFF" math="0" shadow="0">
      <root>
        <mxCell id="0" />
        <mxCell id="1" parent="0" />
        <mxCell id="_ipZNMUh-rsfLEngfCbL-6" value="" style="endArrow=classic;html=1;rounded=0;elbow=vertical;dashed=1;strokeWidth=5;fillColor=#f9f7ed;strokeColor=#36393d;flowAnimation=1;" edge="1" parent="1">
          <mxGeometry relative="1" as="geometry">
            <mxPoint x="206" y="274" as="sourcePoint" />
            <mxPoint x="306" y="274" as="targetPoint" />
          </mxGeometry>
        </mxCell>
        <mxCell id="_ipZNMUh-rsfLEngfCbL-8" value="" style="shape=image;verticalLabelPosition=bottom;labelBackgroundColor=default;verticalAlign=top;aspect=fixed;imageAspect=0;image=https://res.cloudinary.com/practicaldev/image/fetch/s--kg2CO9xx--/c_imagga_scale,f_auto,fl_progressive,h_420,q_auto,w_1000/https://dev-to-uploads.s3.amazonaws.com/uploads/articles/3bwh51idtdyd8bmdmbxb.png;" vertex="1" parent="1">
          <mxGeometry x="328" y="242" width="159.53" height="67" as="geometry" />
        </mxCell>
        <mxCell id="_ipZNMUh-rsfLEngfCbL-10" value="created by Gasser&lt;div&gt;&lt;br&gt;&lt;/div&gt;" style="text;html=1;align=center;verticalAlign=middle;resizable=0;points=[];autosize=1;strokeColor=none;fillColor=none;" vertex="1" parent="1">
          <mxGeometry x="15" y="33" width="116" height="41" as="geometry" />
        </mxCell>
        <mxCell id="_ipZNMUh-rsfLEngfCbL-11" value="or any baas like&lt;div&gt;&amp;nbsp;firebase , amplify&amp;nbsp; , mongo atlas&lt;/div&gt;" style="text;html=1;align=center;verticalAlign=middle;resizable=0;points=[];autosize=1;strokeColor=none;fillColor=none;" vertex="1" parent="1">
          <mxGeometry x="315" y="315" width="191" height="41" as="geometry" />
        </mxCell>
        <mxCell id="_ipZNMUh-rsfLEngfCbL-12" value="storage" style="sketch=0;outlineConnect=0;fontColor=#232F3E;gradientColor=none;fillColor=#7AA116;strokeColor=none;dashed=0;verticalLabelPosition=bottom;verticalAlign=top;align=center;html=1;fontSize=12;fontStyle=0;aspect=fixed;pointerEvents=1;shape=mxgraph.aws4.bucket;" vertex="1" parent="1">
          <mxGeometry x="645.5" y="229" width="75" height="78" as="geometry" />
        </mxCell>
        <mxCell id="_ipZNMUh-rsfLEngfCbL-14" value="" style="image;aspect=fixed;html=1;points=[];align=center;fontSize=12;image=img/lib/azure2/identity/Managed_Identities.svg;" vertex="1" parent="1">
          <mxGeometry x="649" y="408" width="68" height="66" as="geometry" />
        </mxCell>
        <mxCell id="_ipZNMUh-rsfLEngfCbL-15" value="authentication&amp;nbsp;" style="text;html=1;align=center;verticalAlign=middle;resizable=0;points=[];autosize=1;strokeColor=none;fillColor=none;" vertex="1" parent="1">
          <mxGeometry x="635" y="492" width="96" height="26" as="geometry" />
        </mxCell>
        <mxCell id="_ipZNMUh-rsfLEngfCbL-16" value="why Baas is so helpful&lt;div style=&quot;font-size: 22px;&quot;&gt;&lt;br style=&quot;font-size: 22px;&quot;&gt;&lt;/div&gt;" style="text;html=1;align=center;verticalAlign=middle;resizable=0;points=[];autosize=1;strokeColor=none;fillColor=none;dashed=1;dashPattern=8 8;strokeWidth=5;sketch=1;curveFitting=1;jiggle=2;fontSize=22;fontStyle=1;horizontal=1;fontColor=#3228b8;fontFamily=Comic Sans MS;" vertex="1" parent="1">
          <mxGeometry x="297" y="56" width="241" height="65" as="geometry" />
        </mxCell>
        <mxCell id="_ipZNMUh-rsfLEngfCbL-24" value="" style="endArrow=classic;html=1;rounded=0;elbow=vertical;exitX=1;exitY=0;exitDx=0;exitDy=0;dashed=1;dashPattern=8 8;flowAnimation=1;shadow=1;" edge="1" parent="1" source="_ipZNMUh-rsfLEngfCbL-8" target="_ipZNMUh-rsfLEngfCbL-23">
          <mxGeometry width="50" height="50" relative="1" as="geometry">
            <mxPoint x="488" y="242" as="sourcePoint" />
            <mxPoint x="653" y="111" as="targetPoint" />
            <Array as="points" />
          </mxGeometry>
        </mxCell>
        <mxCell id="_ipZNMUh-rsfLEngfCbL-23" value="" style="sketch=0;outlineConnect=0;fontColor=#232F3E;gradientColor=none;fillColor=#8C4FFF;strokeColor=none;dashed=0;verticalLabelPosition=bottom;verticalAlign=top;align=center;html=1;fontSize=12;fontStyle=0;aspect=fixed;pointerEvents=1;shape=mxgraph.aws4.redshift_query_editor_v20_light;" vertex="1" parent="1">
          <mxGeometry x="548" y="151" width="39" height="39" as="geometry" />
        </mxCell>
        <mxCell id="_ipZNMUh-rsfLEngfCbL-25" value="query&lt;div&gt;&lt;br&gt;&lt;/div&gt;" style="text;html=1;align=center;verticalAlign=middle;resizable=0;points=[];autosize=1;strokeColor=none;fillColor=none;" vertex="1" parent="1">
          <mxGeometry x="535" y="121" width="48" height="41" as="geometry" />
        </mxCell>
        <mxCell id="_ipZNMUh-rsfLEngfCbL-26" value="" style="endArrow=classic;html=1;rounded=0;elbow=vertical;dashed=1;dashPattern=8 8;exitX=0.754;exitY=1.034;exitDx=0;exitDy=0;exitPerimeter=0;flowAnimation=1;entryX=0;entryY=0.5;entryDx=0;entryDy=0;" edge="1" parent="1" source="_ipZNMUh-rsfLEngfCbL-25" target="_ipZNMUh-rsfLEngfCbL-41">
          <mxGeometry width="50" height="50" relative="1" as="geometry">
            <mxPoint x="398" y="290" as="sourcePoint" />
            <mxPoint x="655" y="98" as="targetPoint" />
          </mxGeometry>
        </mxCell>
        <mxCell id="_ipZNMUh-rsfLEngfCbL-27" value="" style="endArrow=classic;html=1;rounded=0;elbow=vertical;exitX=1;exitY=1;exitDx=0;exitDy=0;flowAnimation=1;" edge="1" parent="1" source="_ipZNMUh-rsfLEngfCbL-8" target="_ipZNMUh-rsfLEngfCbL-14">
          <mxGeometry width="50" height="50" relative="1" as="geometry">
            <mxPoint x="398" y="290" as="sourcePoint" />
            <mxPoint x="448" y="240" as="targetPoint" />
          </mxGeometry>
        </mxCell>
        <mxCell id="_ipZNMUh-rsfLEngfCbL-43" value="email and password" style="edgeLabel;html=1;align=center;verticalAlign=middle;resizable=0;points=[];" vertex="1" connectable="0" parent="_ipZNMUh-rsfLEngfCbL-27">
          <mxGeometry x="-0.144" y="-3" relative="1" as="geometry">
            <mxPoint x="-2" y="38" as="offset" />
          </mxGeometry>
        </mxCell>
        <mxCell id="_ipZNMUh-rsfLEngfCbL-29" value="" style="sketch=0;outlineConnect=0;fontColor=#232F3E;gradientColor=none;fillColor=#7AA116;strokeColor=none;dashed=0;verticalLabelPosition=bottom;verticalAlign=top;align=center;html=1;fontSize=12;fontStyle=0;aspect=fixed;pointerEvents=1;shape=mxgraph.aws4.file_system;" vertex="1" parent="1">
          <mxGeometry x="548" y="252" width="41.67" height="39" as="geometry" />
        </mxCell>
        <mxCell id="_ipZNMUh-rsfLEngfCbL-30" value="&lt;h3&gt;&lt;font color=&quot;#000000&quot;&gt;supa base sdk&lt;/font&gt;&lt;/h3&gt;" style="sketch=0;outlineConnect=0;fillColor=#1ba1e2;strokeColor=#006EAF;dashed=0;verticalLabelPosition=bottom;verticalAlign=top;align=center;html=1;fontSize=12;fontStyle=0;aspect=fixed;pointerEvents=1;shape=mxgraph.aws4.external_sdk;fontColor=#ffffff;" vertex="1" parent="1">
          <mxGeometry x="241" y="260" width="28.77" height="33" as="geometry" />
        </mxCell>
        <mxCell id="_ipZNMUh-rsfLEngfCbL-33" value="" style="endArrow=classic;html=1;rounded=0;exitX=1;exitY=0.5;exitDx=0;exitDy=0;flowAnimation=1;" edge="1" parent="1" source="_ipZNMUh-rsfLEngfCbL-8" target="_ipZNMUh-rsfLEngfCbL-29">
          <mxGeometry width="50" height="50" relative="1" as="geometry">
            <mxPoint x="398" y="290" as="sourcePoint" />
            <mxPoint x="448" y="240" as="targetPoint" />
          </mxGeometry>
        </mxCell>
        <mxCell id="_ipZNMUh-rsfLEngfCbL-34" value="" style="endArrow=classic;html=1;rounded=0;flowAnimation=1;" edge="1" parent="1" source="_ipZNMUh-rsfLEngfCbL-29" target="_ipZNMUh-rsfLEngfCbL-12">
          <mxGeometry width="50" height="50" relative="1" as="geometry">
            <mxPoint x="498" y="286" as="sourcePoint" />
            <mxPoint x="558" y="283" as="targetPoint" />
          </mxGeometry>
        </mxCell>
        <mxCell id="_ipZNMUh-rsfLEngfCbL-36" value="" style="shape=image;verticalLabelPosition=bottom;labelBackgroundColor=default;verticalAlign=top;aspect=fixed;imageAspect=0;image=https://nickroberts.ninja/wp-content/uploads/2017/07/react.jpg;" vertex="1" parent="1">
          <mxGeometry x="128" y="198" width="57.5" height="57.5" as="geometry" />
        </mxCell>
        <mxCell id="_ipZNMUh-rsfLEngfCbL-37" value="" style="shape=image;verticalLabelPosition=bottom;labelBackgroundColor=default;verticalAlign=top;aspect=fixed;imageAspect=0;image=https://www.xda-developers.com/files/2018/02/Flutter-Framework-Feature-Image-Background-Colour.png;" vertex="1" parent="1">
          <mxGeometry x="124.5" y="279" width="64.5" height="43" as="geometry" />
        </mxCell>
        <mxCell id="_ipZNMUh-rsfLEngfCbL-38" value="" style="shape=image;verticalLabelPosition=bottom;labelBackgroundColor=default;verticalAlign=top;aspect=fixed;imageAspect=0;image=https://logodownload.org/wp-content/uploads/2022/04/javascript-logo-1.png;" vertex="1" parent="1">
          <mxGeometry x="131" y="345" width="53" height="53" as="geometry" />
        </mxCell>
        <mxCell id="_ipZNMUh-rsfLEngfCbL-40" value="" style="edgeStyle=orthogonalEdgeStyle;rounded=0;orthogonalLoop=1;jettySize=auto;html=1;flowAnimation=1;" edge="1" parent="1" source="_ipZNMUh-rsfLEngfCbL-39" target="_ipZNMUh-rsfLEngfCbL-36">
          <mxGeometry relative="1" as="geometry" />
        </mxCell>
        <mxCell id="_ipZNMUh-rsfLEngfCbL-39" value="Front end&amp;nbsp;&lt;div&gt;Frame works&lt;/div&gt;" style="rounded=1;whiteSpace=wrap;html=1;" vertex="1" parent="1">
          <mxGeometry x="96.75" y="91" width="120" height="60" as="geometry" />
        </mxCell>
        <mxCell id="_ipZNMUh-rsfLEngfCbL-41" value="Database" style="image;html=1;image=img/lib/clip_art/computers/Database_128x128.png" vertex="1" parent="1">
          <mxGeometry x="649" y="61" width="80" height="80" as="geometry" />
        </mxCell>
        <mxCell id="_ipZNMUh-rsfLEngfCbL-42" value="" style="verticalLabelPosition=bottom;html=1;verticalAlign=top;align=center;strokeColor=none;fillColor=#00BEF2;shape=mxgraph.azure.access_control;" vertex="1" parent="1">
          <mxGeometry x="530" y="331" width="50" height="50" as="geometry" />
        </mxCell>
        <mxCell id="_ipZNMUh-rsfLEngfCbL-44" value="files&amp;nbsp;&lt;div&gt;ex : images&amp;nbsp;&lt;/div&gt;" style="text;html=1;align=center;verticalAlign=middle;resizable=0;points=[];autosize=1;strokeColor=none;fillColor=none;" vertex="1" parent="1">
          <mxGeometry x="526" y="214.5" width="83" height="41" as="geometry" />
        </mxCell>
      </root>
    </mxGraphModel>
  </diagram>
</mxfile>
